<mxfile host="app.diagrams.net" modified="2024-01-03T14:13:32.766Z" agent="Mozilla/5.0 (Windows NT 10.0; Win64; x64) AppleWebKit/537.36 (KHTML, like Gecko) Chrome/120.0.0.0 Safari/537.36" etag="WFZPDfuBXK_oVAJAdq7t" version="22.1.16" type="device">
  <diagram name="Page-1" id="Tmd0hVu_aaq1NcaiSV9d">
    <mxGraphModel dx="1434" dy="746" grid="1" gridSize="10" guides="1" tooltips="1" connect="1" arrows="1" fold="1" page="1" pageScale="1" pageWidth="850" pageHeight="1100" math="0" shadow="0">
      <root>
        <mxCell id="0" />
        <mxCell id="1" parent="0" />
        <mxCell id="8NRs26gJL5N8d2DaRKu5-35" value="" style="rounded=0;whiteSpace=wrap;html=1;fillColor=none;" parent="1" vertex="1">
          <mxGeometry x="10" y="500" width="600" height="490" as="geometry" />
        </mxCell>
        <mxCell id="8NRs26gJL5N8d2DaRKu5-36" value="" style="rounded=0;whiteSpace=wrap;html=1;fillColor=none;" parent="1" vertex="1">
          <mxGeometry x="10" y="1030" width="600" height="490" as="geometry" />
        </mxCell>
        <mxCell id="8NRs26gJL5N8d2DaRKu5-34" value="" style="rounded=0;whiteSpace=wrap;html=1;fillColor=none;" parent="1" vertex="1">
          <mxGeometry x="10" y="20" width="600" height="440" as="geometry" />
        </mxCell>
        <mxCell id="3xU0keMcZHfeWrE_H74o-6" value="Case" style="swimlane;fontStyle=0;childLayout=stackLayout;horizontal=1;startSize=26;fillColor=none;horizontalStack=0;resizeParent=1;resizeParentMax=0;resizeLast=0;collapsible=1;marginBottom=0;whiteSpace=wrap;html=1;" parent="1" vertex="1">
          <mxGeometry x="220" y="193" width="140" height="78" as="geometry">
            <mxRectangle x="130" y="90" width="100" height="30" as="alternateBounds" />
          </mxGeometry>
        </mxCell>
        <mxCell id="3xU0keMcZHfeWrE_H74o-7" value="number: BusinessId" style="text;strokeColor=none;fillColor=none;align=left;verticalAlign=top;spacingLeft=4;spacingRight=4;overflow=hidden;rotatable=0;points=[[0,0.5],[1,0.5]];portConstraint=eastwest;whiteSpace=wrap;html=1;" parent="3xU0keMcZHfeWrE_H74o-6" vertex="1">
          <mxGeometry y="26" width="140" height="26" as="geometry" />
        </mxCell>
        <mxCell id="3xU0keMcZHfeWrE_H74o-9" value="name: Text" style="text;strokeColor=none;fillColor=none;align=left;verticalAlign=top;spacingLeft=4;spacingRight=4;overflow=hidden;rotatable=0;points=[[0,0.5],[1,0.5]];portConstraint=eastwest;whiteSpace=wrap;html=1;" parent="3xU0keMcZHfeWrE_H74o-6" vertex="1">
          <mxGeometry y="52" width="140" height="26" as="geometry" />
        </mxCell>
        <mxCell id="3xU0keMcZHfeWrE_H74o-15" value="Extends" style="endArrow=block;endSize=16;endFill=0;html=1;rounded=0;" parent="1" source="3xU0keMcZHfeWrE_H74o-21" target="3xU0keMcZHfeWrE_H74o-6" edge="1">
          <mxGeometry width="160" relative="1" as="geometry">
            <mxPoint x="317.4509803921569" y="410" as="sourcePoint" />
            <mxPoint x="410" y="470" as="targetPoint" />
          </mxGeometry>
        </mxCell>
        <mxCell id="3xU0keMcZHfeWrE_H74o-16" value="Type" style="swimlane;fontStyle=0;childLayout=stackLayout;horizontal=1;startSize=26;fillColor=none;horizontalStack=0;resizeParent=1;resizeParentMax=0;resizeLast=0;collapsible=1;marginBottom=0;whiteSpace=wrap;html=1;" parent="1" vertex="1">
          <mxGeometry x="30" y="180" width="140" height="104" as="geometry" />
        </mxCell>
        <mxCell id="3xU0keMcZHfeWrE_H74o-17" value="key: Text" style="text;strokeColor=none;fillColor=none;align=left;verticalAlign=top;spacingLeft=4;spacingRight=4;overflow=hidden;rotatable=0;points=[[0,0.5],[1,0.5]];portConstraint=eastwest;whiteSpace=wrap;html=1;" parent="3xU0keMcZHfeWrE_H74o-16" vertex="1">
          <mxGeometry y="26" width="140" height="26" as="geometry" />
        </mxCell>
        <mxCell id="3xU0keMcZHfeWrE_H74o-18" value="value: Text" style="text;strokeColor=none;fillColor=none;align=left;verticalAlign=top;spacingLeft=4;spacingRight=4;overflow=hidden;rotatable=0;points=[[0,0.5],[1,0.5]];portConstraint=eastwest;whiteSpace=wrap;html=1;" parent="3xU0keMcZHfeWrE_H74o-16" vertex="1">
          <mxGeometry y="52" width="140" height="26" as="geometry" />
        </mxCell>
        <mxCell id="3xU0keMcZHfeWrE_H74o-19" value="is_active: Boolean" style="text;strokeColor=none;fillColor=none;align=left;verticalAlign=top;spacingLeft=4;spacingRight=4;overflow=hidden;rotatable=0;points=[[0,0.5],[1,0.5]];portConstraint=eastwest;whiteSpace=wrap;html=1;" parent="3xU0keMcZHfeWrE_H74o-16" vertex="1">
          <mxGeometry y="78" width="140" height="26" as="geometry" />
        </mxCell>
        <mxCell id="3xU0keMcZHfeWrE_H74o-20" value="" style="endArrow=diamondThin;endFill=0;endSize=24;html=1;rounded=0;" parent="1" source="3xU0keMcZHfeWrE_H74o-16" target="3xU0keMcZHfeWrE_H74o-6" edge="1">
          <mxGeometry width="160" relative="1" as="geometry">
            <mxPoint x="20" y="410" as="sourcePoint" />
            <mxPoint x="180" y="410" as="targetPoint" />
          </mxGeometry>
        </mxCell>
        <mxCell id="3xU0keMcZHfeWrE_H74o-21" value="Special case" style="swimlane;fontStyle=0;childLayout=stackLayout;horizontal=1;startSize=26;fillColor=none;horizontalStack=0;resizeParent=1;resizeParentMax=0;resizeLast=0;collapsible=1;marginBottom=0;whiteSpace=wrap;html=1;" parent="1" vertex="1">
          <mxGeometry x="140" y="350" width="140" height="52" as="geometry">
            <mxRectangle x="130" y="90" width="100" height="30" as="alternateBounds" />
          </mxGeometry>
        </mxCell>
        <mxCell id="3xU0keMcZHfeWrE_H74o-22" value="level: Integer" style="text;strokeColor=none;fillColor=none;align=left;verticalAlign=top;spacingLeft=4;spacingRight=4;overflow=hidden;rotatable=0;points=[[0,0.5],[1,0.5]];portConstraint=eastwest;whiteSpace=wrap;html=1;" parent="3xU0keMcZHfeWrE_H74o-21" vertex="1">
          <mxGeometry y="26" width="140" height="26" as="geometry" />
        </mxCell>
        <mxCell id="3xU0keMcZHfeWrE_H74o-24" value="Secret case" style="swimlane;fontStyle=0;childLayout=stackLayout;horizontal=1;startSize=26;fillColor=none;horizontalStack=0;resizeParent=1;resizeParentMax=0;resizeLast=0;collapsible=1;marginBottom=0;whiteSpace=wrap;html=1;" parent="1" vertex="1">
          <mxGeometry x="300" y="350" width="140" height="52" as="geometry">
            <mxRectangle x="130" y="90" width="100" height="30" as="alternateBounds" />
          </mxGeometry>
        </mxCell>
        <mxCell id="3xU0keMcZHfeWrE_H74o-25" value="class: Integer" style="text;strokeColor=none;fillColor=none;align=left;verticalAlign=top;spacingLeft=4;spacingRight=4;overflow=hidden;rotatable=0;points=[[0,0.5],[1,0.5]];portConstraint=eastwest;whiteSpace=wrap;html=1;" parent="3xU0keMcZHfeWrE_H74o-24" vertex="1">
          <mxGeometry y="26" width="140" height="26" as="geometry" />
        </mxCell>
        <mxCell id="3xU0keMcZHfeWrE_H74o-26" value="Extends" style="endArrow=block;endSize=16;endFill=0;html=1;rounded=0;" parent="1" source="3xU0keMcZHfeWrE_H74o-24" target="3xU0keMcZHfeWrE_H74o-6" edge="1">
          <mxGeometry width="160" relative="1" as="geometry">
            <mxPoint x="236" y="360" as="sourcePoint" />
            <mxPoint x="286" y="281" as="targetPoint" />
          </mxGeometry>
        </mxCell>
        <mxCell id="3xU0keMcZHfeWrE_H74o-31" value="Type" style="swimlane;fontStyle=0;childLayout=stackLayout;horizontal=1;startSize=26;fillColor=none;horizontalStack=0;resizeParent=1;resizeParentMax=0;resizeLast=0;collapsible=1;marginBottom=0;whiteSpace=wrap;html=1;" parent="1" vertex="1">
          <mxGeometry x="30" y="660" width="140" height="104" as="geometry" />
        </mxCell>
        <mxCell id="3xU0keMcZHfeWrE_H74o-32" value="key: Text" style="text;strokeColor=none;fillColor=none;align=left;verticalAlign=top;spacingLeft=4;spacingRight=4;overflow=hidden;rotatable=0;points=[[0,0.5],[1,0.5]];portConstraint=eastwest;whiteSpace=wrap;html=1;" parent="3xU0keMcZHfeWrE_H74o-31" vertex="1">
          <mxGeometry y="26" width="140" height="26" as="geometry" />
        </mxCell>
        <mxCell id="3xU0keMcZHfeWrE_H74o-33" value="value: Text" style="text;strokeColor=none;fillColor=none;align=left;verticalAlign=top;spacingLeft=4;spacingRight=4;overflow=hidden;rotatable=0;points=[[0,0.5],[1,0.5]];portConstraint=eastwest;whiteSpace=wrap;html=1;" parent="3xU0keMcZHfeWrE_H74o-31" vertex="1">
          <mxGeometry y="52" width="140" height="26" as="geometry" />
        </mxCell>
        <mxCell id="3xU0keMcZHfeWrE_H74o-34" value="is_active: Boolean" style="text;strokeColor=none;fillColor=none;align=left;verticalAlign=top;spacingLeft=4;spacingRight=4;overflow=hidden;rotatable=0;points=[[0,0.5],[1,0.5]];portConstraint=eastwest;whiteSpace=wrap;html=1;" parent="3xU0keMcZHfeWrE_H74o-31" vertex="1">
          <mxGeometry y="78" width="140" height="26" as="geometry" />
        </mxCell>
        <mxCell id="3xU0keMcZHfeWrE_H74o-36" value="Special case" style="swimlane;fontStyle=0;childLayout=stackLayout;horizontal=1;startSize=26;fillColor=none;horizontalStack=0;resizeParent=1;resizeParentMax=0;resizeLast=0;collapsible=1;marginBottom=0;whiteSpace=wrap;html=1;" parent="1" vertex="1">
          <mxGeometry x="400" y="870" width="140" height="52" as="geometry">
            <mxRectangle x="130" y="90" width="100" height="30" as="alternateBounds" />
          </mxGeometry>
        </mxCell>
        <mxCell id="3xU0keMcZHfeWrE_H74o-37" value="level: Integer" style="text;strokeColor=none;fillColor=none;align=left;verticalAlign=top;spacingLeft=4;spacingRight=4;overflow=hidden;rotatable=0;points=[[0,0.5],[1,0.5]];portConstraint=eastwest;whiteSpace=wrap;html=1;" parent="3xU0keMcZHfeWrE_H74o-36" vertex="1">
          <mxGeometry y="26" width="140" height="26" as="geometry" />
        </mxCell>
        <mxCell id="3xU0keMcZHfeWrE_H74o-38" value="Secret case" style="swimlane;fontStyle=0;childLayout=stackLayout;horizontal=1;startSize=26;fillColor=none;horizontalStack=0;resizeParent=1;resizeParentMax=0;resizeLast=0;collapsible=1;marginBottom=0;whiteSpace=wrap;html=1;" parent="1" vertex="1">
          <mxGeometry x="400" y="800" width="140" height="52" as="geometry">
            <mxRectangle x="130" y="90" width="100" height="30" as="alternateBounds" />
          </mxGeometry>
        </mxCell>
        <mxCell id="3xU0keMcZHfeWrE_H74o-39" value="class: Integer" style="text;strokeColor=none;fillColor=none;align=left;verticalAlign=top;spacingLeft=4;spacingRight=4;overflow=hidden;rotatable=0;points=[[0,0.5],[1,0.5]];portConstraint=eastwest;whiteSpace=wrap;html=1;" parent="3xU0keMcZHfeWrE_H74o-38" vertex="1">
          <mxGeometry y="26" width="140" height="26" as="geometry" />
        </mxCell>
        <mxCell id="3xU0keMcZHfeWrE_H74o-42" value="Case" style="swimlane;fontStyle=0;childLayout=stackLayout;horizontal=1;startSize=26;fillColor=none;horizontalStack=0;resizeParent=1;resizeParentMax=0;resizeLast=0;collapsible=1;marginBottom=0;whiteSpace=wrap;html=1;" parent="1" vertex="1">
          <mxGeometry x="220" y="660" width="140" height="104" as="geometry" />
        </mxCell>
        <mxCell id="3xU0keMcZHfeWrE_H74o-43" value="number: BusinessId" style="text;strokeColor=none;fillColor=none;align=left;verticalAlign=top;spacingLeft=4;spacingRight=4;overflow=hidden;rotatable=0;points=[[0,0.5],[1,0.5]];portConstraint=eastwest;whiteSpace=wrap;html=1;" parent="3xU0keMcZHfeWrE_H74o-42" vertex="1">
          <mxGeometry y="26" width="140" height="26" as="geometry" />
        </mxCell>
        <mxCell id="3xU0keMcZHfeWrE_H74o-44" value="name: Text" style="text;strokeColor=none;fillColor=none;align=left;verticalAlign=top;spacingLeft=4;spacingRight=4;overflow=hidden;rotatable=0;points=[[0,0.5],[1,0.5]];portConstraint=eastwest;whiteSpace=wrap;html=1;" parent="3xU0keMcZHfeWrE_H74o-42" vertex="1">
          <mxGeometry y="52" width="140" height="26" as="geometry" />
        </mxCell>
        <mxCell id="3xU0keMcZHfeWrE_H74o-45" value="type: Dyn. Enum" style="text;strokeColor=none;fillColor=none;align=left;verticalAlign=top;spacingLeft=4;spacingRight=4;overflow=hidden;rotatable=0;points=[[0,0.5],[1,0.5]];portConstraint=eastwest;whiteSpace=wrap;html=1;" parent="3xU0keMcZHfeWrE_H74o-42" vertex="1">
          <mxGeometry y="78" width="140" height="26" as="geometry" />
        </mxCell>
        <mxCell id="3xU0keMcZHfeWrE_H74o-47" value="" style="endArrow=diamondThin;endFill=0;endSize=24;html=1;rounded=0;" parent="1" source="3xU0keMcZHfeWrE_H74o-42" target="3xU0keMcZHfeWrE_H74o-38" edge="1">
          <mxGeometry width="160" relative="1" as="geometry">
            <mxPoint x="390" y="711.5" as="sourcePoint" />
            <mxPoint x="440" y="711.5" as="targetPoint" />
            <Array as="points">
              <mxPoint x="290" y="826" />
            </Array>
          </mxGeometry>
        </mxCell>
        <mxCell id="3xU0keMcZHfeWrE_H74o-48" value="" style="endArrow=diamondThin;endFill=0;endSize=24;html=1;rounded=0;" parent="1" source="3xU0keMcZHfeWrE_H74o-42" target="3xU0keMcZHfeWrE_H74o-36" edge="1">
          <mxGeometry width="160" relative="1" as="geometry">
            <mxPoint x="370" y="722" as="sourcePoint" />
            <mxPoint x="440" y="722" as="targetPoint" />
            <Array as="points">
              <mxPoint x="290" y="896" />
            </Array>
          </mxGeometry>
        </mxCell>
        <mxCell id="3xU0keMcZHfeWrE_H74o-50" value="" style="line;strokeWidth=2;direction=south;html=1;dashed=1;" parent="1" vertex="1">
          <mxGeometry x="190" y="630" width="10" height="350" as="geometry" />
        </mxCell>
        <mxCell id="3xU0keMcZHfeWrE_H74o-51" value="Cabinet" style="swimlane;fontStyle=0;childLayout=stackLayout;horizontal=1;startSize=26;fillColor=none;horizontalStack=0;resizeParent=1;resizeParentMax=0;resizeLast=0;collapsible=1;marginBottom=0;whiteSpace=wrap;html=1;" parent="1" vertex="1">
          <mxGeometry x="450" y="193" width="140" height="78" as="geometry" />
        </mxCell>
        <mxCell id="3xU0keMcZHfeWrE_H74o-52" value="location: Text" style="text;strokeColor=none;fillColor=none;align=left;verticalAlign=top;spacingLeft=4;spacingRight=4;overflow=hidden;rotatable=0;points=[[0,0.5],[1,0.5]];portConstraint=eastwest;whiteSpace=wrap;html=1;" parent="3xU0keMcZHfeWrE_H74o-51" vertex="1">
          <mxGeometry y="26" width="140" height="26" as="geometry" />
        </mxCell>
        <mxCell id="3xU0keMcZHfeWrE_H74o-53" value="tag: Text" style="text;strokeColor=none;fillColor=none;align=left;verticalAlign=top;spacingLeft=4;spacingRight=4;overflow=hidden;rotatable=0;points=[[0,0.5],[1,0.5]];portConstraint=eastwest;whiteSpace=wrap;html=1;" parent="3xU0keMcZHfeWrE_H74o-51" vertex="1">
          <mxGeometry y="52" width="140" height="26" as="geometry" />
        </mxCell>
        <mxCell id="3xU0keMcZHfeWrE_H74o-64" value="*..1" style="endArrow=diamondThin;endFill=0;endSize=24;html=1;rounded=0;" parent="1" source="3xU0keMcZHfeWrE_H74o-6" target="3xU0keMcZHfeWrE_H74o-51" edge="1">
          <mxGeometry width="160" relative="1" as="geometry">
            <mxPoint x="180" y="242" as="sourcePoint" />
            <mxPoint x="230" y="242" as="targetPoint" />
          </mxGeometry>
        </mxCell>
        <mxCell id="3xU0keMcZHfeWrE_H74o-65" value="Cabinet" style="swimlane;fontStyle=0;childLayout=stackLayout;horizontal=1;startSize=26;fillColor=none;horizontalStack=0;resizeParent=1;resizeParentMax=0;resizeLast=0;collapsible=1;marginBottom=0;whiteSpace=wrap;html=1;" parent="1" vertex="1">
          <mxGeometry x="450" y="670" width="140" height="78" as="geometry" />
        </mxCell>
        <mxCell id="3xU0keMcZHfeWrE_H74o-66" value="location: Text" style="text;strokeColor=none;fillColor=none;align=left;verticalAlign=top;spacingLeft=4;spacingRight=4;overflow=hidden;rotatable=0;points=[[0,0.5],[1,0.5]];portConstraint=eastwest;whiteSpace=wrap;html=1;" parent="3xU0keMcZHfeWrE_H74o-65" vertex="1">
          <mxGeometry y="26" width="140" height="26" as="geometry" />
        </mxCell>
        <mxCell id="3xU0keMcZHfeWrE_H74o-67" value="tag: Text" style="text;strokeColor=none;fillColor=none;align=left;verticalAlign=top;spacingLeft=4;spacingRight=4;overflow=hidden;rotatable=0;points=[[0,0.5],[1,0.5]];portConstraint=eastwest;whiteSpace=wrap;html=1;" parent="3xU0keMcZHfeWrE_H74o-65" vertex="1">
          <mxGeometry y="52" width="140" height="26" as="geometry" />
        </mxCell>
        <mxCell id="3xU0keMcZHfeWrE_H74o-68" value="*..1" style="endArrow=diamondThin;endFill=0;endSize=24;html=1;rounded=0;" parent="1" source="3xU0keMcZHfeWrE_H74o-42" target="3xU0keMcZHfeWrE_H74o-65" edge="1">
          <mxGeometry width="160" relative="1" as="geometry">
            <mxPoint x="370" y="352" as="sourcePoint" />
            <mxPoint x="450" y="352" as="targetPoint" />
          </mxGeometry>
        </mxCell>
        <mxCell id="3xU0keMcZHfeWrE_H74o-72" value="Inheritance with direct config relation" style="text;html=1;strokeColor=none;fillColor=none;align=center;verticalAlign=middle;whiteSpace=wrap;rounded=0;" parent="1" vertex="1">
          <mxGeometry x="450" y="420" width="150" height="30" as="geometry" />
        </mxCell>
        <mxCell id="3xU0keMcZHfeWrE_H74o-73" value="Relations with loosly config over dyn. enum property" style="text;html=1;strokeColor=none;fillColor=none;align=center;verticalAlign=middle;whiteSpace=wrap;rounded=0;" parent="1" vertex="1">
          <mxGeometry x="450" y="950" width="150" height="30" as="geometry" />
        </mxCell>
        <mxCell id="8NRs26gJL5N8d2DaRKu5-2" value="Type" style="swimlane;fontStyle=0;childLayout=stackLayout;horizontal=1;startSize=26;fillColor=none;horizontalStack=0;resizeParent=1;resizeParentMax=0;resizeLast=0;collapsible=1;marginBottom=0;whiteSpace=wrap;html=1;" parent="1" vertex="1">
          <mxGeometry x="30" y="1190" width="140" height="104" as="geometry" />
        </mxCell>
        <mxCell id="8NRs26gJL5N8d2DaRKu5-3" value="key: Text" style="text;strokeColor=none;fillColor=none;align=left;verticalAlign=top;spacingLeft=4;spacingRight=4;overflow=hidden;rotatable=0;points=[[0,0.5],[1,0.5]];portConstraint=eastwest;whiteSpace=wrap;html=1;" parent="8NRs26gJL5N8d2DaRKu5-2" vertex="1">
          <mxGeometry y="26" width="140" height="26" as="geometry" />
        </mxCell>
        <mxCell id="8NRs26gJL5N8d2DaRKu5-4" value="value: Text" style="text;strokeColor=none;fillColor=none;align=left;verticalAlign=top;spacingLeft=4;spacingRight=4;overflow=hidden;rotatable=0;points=[[0,0.5],[1,0.5]];portConstraint=eastwest;whiteSpace=wrap;html=1;" parent="8NRs26gJL5N8d2DaRKu5-2" vertex="1">
          <mxGeometry y="52" width="140" height="26" as="geometry" />
        </mxCell>
        <mxCell id="8NRs26gJL5N8d2DaRKu5-5" value="is_active: Boolean" style="text;strokeColor=none;fillColor=none;align=left;verticalAlign=top;spacingLeft=4;spacingRight=4;overflow=hidden;rotatable=0;points=[[0,0.5],[1,0.5]];portConstraint=eastwest;whiteSpace=wrap;html=1;" parent="8NRs26gJL5N8d2DaRKu5-2" vertex="1">
          <mxGeometry y="78" width="140" height="26" as="geometry" />
        </mxCell>
        <mxCell id="8NRs26gJL5N8d2DaRKu5-6" value="Special case" style="swimlane;fontStyle=0;childLayout=stackLayout;horizontal=1;startSize=26;fillColor=none;horizontalStack=0;resizeParent=1;resizeParentMax=0;resizeLast=0;collapsible=1;marginBottom=0;whiteSpace=wrap;html=1;" parent="1" vertex="1">
          <mxGeometry x="400" y="1400" width="140" height="52" as="geometry">
            <mxRectangle x="130" y="90" width="100" height="30" as="alternateBounds" />
          </mxGeometry>
        </mxCell>
        <mxCell id="8NRs26gJL5N8d2DaRKu5-7" value="level: Integer" style="text;strokeColor=none;fillColor=none;align=left;verticalAlign=top;spacingLeft=4;spacingRight=4;overflow=hidden;rotatable=0;points=[[0,0.5],[1,0.5]];portConstraint=eastwest;whiteSpace=wrap;html=1;" parent="8NRs26gJL5N8d2DaRKu5-6" vertex="1">
          <mxGeometry y="26" width="140" height="26" as="geometry" />
        </mxCell>
        <mxCell id="8NRs26gJL5N8d2DaRKu5-8" value="Secret case" style="swimlane;fontStyle=0;childLayout=stackLayout;horizontal=1;startSize=26;fillColor=none;horizontalStack=0;resizeParent=1;resizeParentMax=0;resizeLast=0;collapsible=1;marginBottom=0;whiteSpace=wrap;html=1;" parent="1" vertex="1">
          <mxGeometry x="400" y="1330" width="140" height="52" as="geometry">
            <mxRectangle x="130" y="90" width="100" height="30" as="alternateBounds" />
          </mxGeometry>
        </mxCell>
        <mxCell id="8NRs26gJL5N8d2DaRKu5-9" value="class: Integer" style="text;strokeColor=none;fillColor=none;align=left;verticalAlign=top;spacingLeft=4;spacingRight=4;overflow=hidden;rotatable=0;points=[[0,0.5],[1,0.5]];portConstraint=eastwest;whiteSpace=wrap;html=1;" parent="8NRs26gJL5N8d2DaRKu5-8" vertex="1">
          <mxGeometry y="26" width="140" height="26" as="geometry" />
        </mxCell>
        <mxCell id="8NRs26gJL5N8d2DaRKu5-10" value="Case" style="swimlane;fontStyle=0;childLayout=stackLayout;horizontal=1;startSize=26;fillColor=none;horizontalStack=0;resizeParent=1;resizeParentMax=0;resizeLast=0;collapsible=1;marginBottom=0;whiteSpace=wrap;html=1;" parent="1" vertex="1">
          <mxGeometry x="220" y="1203" width="140" height="78" as="geometry" />
        </mxCell>
        <mxCell id="8NRs26gJL5N8d2DaRKu5-11" value="number: BusinessId" style="text;strokeColor=none;fillColor=none;align=left;verticalAlign=top;spacingLeft=4;spacingRight=4;overflow=hidden;rotatable=0;points=[[0,0.5],[1,0.5]];portConstraint=eastwest;whiteSpace=wrap;html=1;" parent="8NRs26gJL5N8d2DaRKu5-10" vertex="1">
          <mxGeometry y="26" width="140" height="26" as="geometry" />
        </mxCell>
        <mxCell id="8NRs26gJL5N8d2DaRKu5-12" value="name: Text" style="text;strokeColor=none;fillColor=none;align=left;verticalAlign=top;spacingLeft=4;spacingRight=4;overflow=hidden;rotatable=0;points=[[0,0.5],[1,0.5]];portConstraint=eastwest;whiteSpace=wrap;html=1;" parent="8NRs26gJL5N8d2DaRKu5-10" vertex="1">
          <mxGeometry y="52" width="140" height="26" as="geometry" />
        </mxCell>
        <mxCell id="8NRs26gJL5N8d2DaRKu5-14" value="" style="endArrow=diamondThin;endFill=0;endSize=24;html=1;rounded=0;" parent="1" source="8NRs26gJL5N8d2DaRKu5-10" target="8NRs26gJL5N8d2DaRKu5-8" edge="1">
          <mxGeometry width="160" relative="1" as="geometry">
            <mxPoint x="390" y="1241.5" as="sourcePoint" />
            <mxPoint x="440" y="1241.5" as="targetPoint" />
            <Array as="points">
              <mxPoint x="290" y="1356" />
            </Array>
          </mxGeometry>
        </mxCell>
        <mxCell id="8NRs26gJL5N8d2DaRKu5-15" value="" style="endArrow=diamondThin;endFill=0;endSize=24;html=1;rounded=0;" parent="1" source="8NRs26gJL5N8d2DaRKu5-10" target="8NRs26gJL5N8d2DaRKu5-6" edge="1">
          <mxGeometry width="160" relative="1" as="geometry">
            <mxPoint x="370" y="1252" as="sourcePoint" />
            <mxPoint x="440" y="1252" as="targetPoint" />
            <Array as="points">
              <mxPoint x="290" y="1426" />
            </Array>
          </mxGeometry>
        </mxCell>
        <mxCell id="8NRs26gJL5N8d2DaRKu5-17" value="Cabinet" style="swimlane;fontStyle=0;childLayout=stackLayout;horizontal=1;startSize=26;fillColor=none;horizontalStack=0;resizeParent=1;resizeParentMax=0;resizeLast=0;collapsible=1;marginBottom=0;whiteSpace=wrap;html=1;" parent="1" vertex="1">
          <mxGeometry x="450" y="1200" width="140" height="78" as="geometry" />
        </mxCell>
        <mxCell id="8NRs26gJL5N8d2DaRKu5-18" value="location: Text" style="text;strokeColor=none;fillColor=none;align=left;verticalAlign=top;spacingLeft=4;spacingRight=4;overflow=hidden;rotatable=0;points=[[0,0.5],[1,0.5]];portConstraint=eastwest;whiteSpace=wrap;html=1;" parent="8NRs26gJL5N8d2DaRKu5-17" vertex="1">
          <mxGeometry y="26" width="140" height="26" as="geometry" />
        </mxCell>
        <mxCell id="8NRs26gJL5N8d2DaRKu5-19" value="tag: Text" style="text;strokeColor=none;fillColor=none;align=left;verticalAlign=top;spacingLeft=4;spacingRight=4;overflow=hidden;rotatable=0;points=[[0,0.5],[1,0.5]];portConstraint=eastwest;whiteSpace=wrap;html=1;" parent="8NRs26gJL5N8d2DaRKu5-17" vertex="1">
          <mxGeometry y="52" width="140" height="26" as="geometry" />
        </mxCell>
        <mxCell id="8NRs26gJL5N8d2DaRKu5-20" value="*..1" style="endArrow=diamondThin;endFill=0;endSize=24;html=1;rounded=0;" parent="1" source="8NRs26gJL5N8d2DaRKu5-10" target="8NRs26gJL5N8d2DaRKu5-17" edge="1">
          <mxGeometry width="160" relative="1" as="geometry">
            <mxPoint x="370" y="882" as="sourcePoint" />
            <mxPoint x="450" y="882" as="targetPoint" />
          </mxGeometry>
        </mxCell>
        <mxCell id="8NRs26gJL5N8d2DaRKu5-21" value="Relations with linked config relation" style="text;html=1;strokeColor=none;fillColor=none;align=center;verticalAlign=middle;whiteSpace=wrap;rounded=0;" parent="1" vertex="1">
          <mxGeometry x="450" y="1480" width="150" height="30" as="geometry" />
        </mxCell>
        <mxCell id="8NRs26gJL5N8d2DaRKu5-22" value="Central data DB (with API)" style="shape=cylinder3;whiteSpace=wrap;html=1;boundedLbl=1;backgroundOutline=1;size=15;" parent="1" vertex="1">
          <mxGeometry x="70" y="40" width="60" height="80" as="geometry" />
        </mxCell>
        <mxCell id="8NRs26gJL5N8d2DaRKu5-23" value="" style="endArrow=classic;startArrow=classic;html=1;rounded=0;" parent="1" source="3xU0keMcZHfeWrE_H74o-16" target="8NRs26gJL5N8d2DaRKu5-22" edge="1">
          <mxGeometry width="50" height="50" relative="1" as="geometry">
            <mxPoint x="70" y="150" as="sourcePoint" />
            <mxPoint x="120" y="100" as="targetPoint" />
          </mxGeometry>
        </mxCell>
        <mxCell id="8NRs26gJL5N8d2DaRKu5-32" value="BPM sync." style="edgeLabel;html=1;align=center;verticalAlign=middle;resizable=0;points=[];" parent="8NRs26gJL5N8d2DaRKu5-23" vertex="1" connectable="0">
          <mxGeometry x="0.0667" relative="1" as="geometry">
            <mxPoint as="offset" />
          </mxGeometry>
        </mxCell>
        <mxCell id="8NRs26gJL5N8d2DaRKu5-25" value="Central data DB (with API)" style="shape=cylinder3;whiteSpace=wrap;html=1;boundedLbl=1;backgroundOutline=1;size=15;" parent="1" vertex="1">
          <mxGeometry x="70" y="520" width="60" height="80" as="geometry" />
        </mxCell>
        <mxCell id="8NRs26gJL5N8d2DaRKu5-26" value="" style="endArrow=classic;startArrow=classic;html=1;rounded=0;" parent="1" source="3xU0keMcZHfeWrE_H74o-31" target="8NRs26gJL5N8d2DaRKu5-25" edge="1">
          <mxGeometry width="50" height="50" relative="1" as="geometry">
            <mxPoint x="99.5" y="660" as="sourcePoint" />
            <mxPoint x="99.5" y="580" as="targetPoint" />
          </mxGeometry>
        </mxCell>
        <mxCell id="8NRs26gJL5N8d2DaRKu5-27" value="BPM sync." style="edgeLabel;html=1;align=center;verticalAlign=middle;resizable=0;points=[];" parent="8NRs26gJL5N8d2DaRKu5-26" vertex="1" connectable="0">
          <mxGeometry y="-1" relative="1" as="geometry">
            <mxPoint as="offset" />
          </mxGeometry>
        </mxCell>
        <mxCell id="8NRs26gJL5N8d2DaRKu5-28" value="" style="endArrow=diamondThin;endFill=0;endSize=24;html=1;rounded=0;" parent="1" source="8NRs26gJL5N8d2DaRKu5-2" target="8NRs26gJL5N8d2DaRKu5-10" edge="1">
          <mxGeometry width="160" relative="1" as="geometry">
            <mxPoint x="170" y="1084.5" as="sourcePoint" />
            <mxPoint x="220" y="1084.5" as="targetPoint" />
          </mxGeometry>
        </mxCell>
        <mxCell id="8NRs26gJL5N8d2DaRKu5-29" value="Central data DB (with API)" style="shape=cylinder3;whiteSpace=wrap;html=1;boundedLbl=1;backgroundOutline=1;size=15;" parent="1" vertex="1">
          <mxGeometry x="70" y="1050" width="60" height="80" as="geometry" />
        </mxCell>
        <mxCell id="8NRs26gJL5N8d2DaRKu5-30" value="" style="endArrow=classic;startArrow=classic;html=1;rounded=0;" parent="1" source="8NRs26gJL5N8d2DaRKu5-2" target="8NRs26gJL5N8d2DaRKu5-29" edge="1">
          <mxGeometry width="50" height="50" relative="1" as="geometry">
            <mxPoint x="99" y="1190" as="sourcePoint" />
            <mxPoint x="99" y="1130" as="targetPoint" />
          </mxGeometry>
        </mxCell>
        <mxCell id="8NRs26gJL5N8d2DaRKu5-33" value="WS AppServer&lt;br&gt;(with linked entity)" style="edgeLabel;html=1;align=center;verticalAlign=middle;resizable=0;points=[];" parent="8NRs26gJL5N8d2DaRKu5-30" vertex="1" connectable="0">
          <mxGeometry x="0.0667" y="-2" relative="1" as="geometry">
            <mxPoint as="offset" />
          </mxGeometry>
        </mxCell>
        <mxCell id="eAvux8Gj0jVYQ6yh-fwD-1" value="" style="rounded=0;whiteSpace=wrap;html=1;fillColor=none;" vertex="1" parent="1">
          <mxGeometry x="10" y="1560" width="600" height="490" as="geometry" />
        </mxCell>
        <mxCell id="eAvux8Gj0jVYQ6yh-fwD-2" value="Type (external)" style="swimlane;fontStyle=0;childLayout=stackLayout;horizontal=1;startSize=26;fillColor=none;horizontalStack=0;resizeParent=1;resizeParentMax=0;resizeLast=0;collapsible=1;marginBottom=0;whiteSpace=wrap;html=1;" vertex="1" parent="1">
          <mxGeometry x="30" y="1720" width="140" height="104" as="geometry" />
        </mxCell>
        <mxCell id="eAvux8Gj0jVYQ6yh-fwD-3" value="key: Text" style="text;strokeColor=none;fillColor=none;align=left;verticalAlign=top;spacingLeft=4;spacingRight=4;overflow=hidden;rotatable=0;points=[[0,0.5],[1,0.5]];portConstraint=eastwest;whiteSpace=wrap;html=1;" vertex="1" parent="eAvux8Gj0jVYQ6yh-fwD-2">
          <mxGeometry y="26" width="140" height="26" as="geometry" />
        </mxCell>
        <mxCell id="eAvux8Gj0jVYQ6yh-fwD-4" value="value: Text" style="text;strokeColor=none;fillColor=none;align=left;verticalAlign=top;spacingLeft=4;spacingRight=4;overflow=hidden;rotatable=0;points=[[0,0.5],[1,0.5]];portConstraint=eastwest;whiteSpace=wrap;html=1;" vertex="1" parent="eAvux8Gj0jVYQ6yh-fwD-2">
          <mxGeometry y="52" width="140" height="26" as="geometry" />
        </mxCell>
        <mxCell id="eAvux8Gj0jVYQ6yh-fwD-5" value="is_active: Boolean" style="text;strokeColor=none;fillColor=none;align=left;verticalAlign=top;spacingLeft=4;spacingRight=4;overflow=hidden;rotatable=0;points=[[0,0.5],[1,0.5]];portConstraint=eastwest;whiteSpace=wrap;html=1;" vertex="1" parent="eAvux8Gj0jVYQ6yh-fwD-2">
          <mxGeometry y="78" width="140" height="26" as="geometry" />
        </mxCell>
        <mxCell id="eAvux8Gj0jVYQ6yh-fwD-6" value="Special case" style="swimlane;fontStyle=0;childLayout=stackLayout;horizontal=1;startSize=26;fillColor=none;horizontalStack=0;resizeParent=1;resizeParentMax=0;resizeLast=0;collapsible=1;marginBottom=0;whiteSpace=wrap;html=1;" vertex="1" parent="1">
          <mxGeometry x="400" y="1930" width="140" height="52" as="geometry">
            <mxRectangle x="130" y="90" width="100" height="30" as="alternateBounds" />
          </mxGeometry>
        </mxCell>
        <mxCell id="eAvux8Gj0jVYQ6yh-fwD-7" value="level: Integer" style="text;strokeColor=none;fillColor=none;align=left;verticalAlign=top;spacingLeft=4;spacingRight=4;overflow=hidden;rotatable=0;points=[[0,0.5],[1,0.5]];portConstraint=eastwest;whiteSpace=wrap;html=1;" vertex="1" parent="eAvux8Gj0jVYQ6yh-fwD-6">
          <mxGeometry y="26" width="140" height="26" as="geometry" />
        </mxCell>
        <mxCell id="eAvux8Gj0jVYQ6yh-fwD-8" value="Secret case" style="swimlane;fontStyle=0;childLayout=stackLayout;horizontal=1;startSize=26;fillColor=none;horizontalStack=0;resizeParent=1;resizeParentMax=0;resizeLast=0;collapsible=1;marginBottom=0;whiteSpace=wrap;html=1;" vertex="1" parent="1">
          <mxGeometry x="400" y="1860" width="140" height="52" as="geometry">
            <mxRectangle x="130" y="90" width="100" height="30" as="alternateBounds" />
          </mxGeometry>
        </mxCell>
        <mxCell id="eAvux8Gj0jVYQ6yh-fwD-9" value="class: Integer" style="text;strokeColor=none;fillColor=none;align=left;verticalAlign=top;spacingLeft=4;spacingRight=4;overflow=hidden;rotatable=0;points=[[0,0.5],[1,0.5]];portConstraint=eastwest;whiteSpace=wrap;html=1;" vertex="1" parent="eAvux8Gj0jVYQ6yh-fwD-8">
          <mxGeometry y="26" width="140" height="26" as="geometry" />
        </mxCell>
        <mxCell id="eAvux8Gj0jVYQ6yh-fwD-10" value="Case" style="swimlane;fontStyle=0;childLayout=stackLayout;horizontal=1;startSize=26;fillColor=none;horizontalStack=0;resizeParent=1;resizeParentMax=0;resizeLast=0;collapsible=1;marginBottom=0;whiteSpace=wrap;html=1;" vertex="1" parent="1">
          <mxGeometry x="220" y="1733" width="140" height="78" as="geometry" />
        </mxCell>
        <mxCell id="eAvux8Gj0jVYQ6yh-fwD-11" value="number: BusinessId" style="text;strokeColor=none;fillColor=none;align=left;verticalAlign=top;spacingLeft=4;spacingRight=4;overflow=hidden;rotatable=0;points=[[0,0.5],[1,0.5]];portConstraint=eastwest;whiteSpace=wrap;html=1;" vertex="1" parent="eAvux8Gj0jVYQ6yh-fwD-10">
          <mxGeometry y="26" width="140" height="26" as="geometry" />
        </mxCell>
        <mxCell id="eAvux8Gj0jVYQ6yh-fwD-12" value="name: Text" style="text;strokeColor=none;fillColor=none;align=left;verticalAlign=top;spacingLeft=4;spacingRight=4;overflow=hidden;rotatable=0;points=[[0,0.5],[1,0.5]];portConstraint=eastwest;whiteSpace=wrap;html=1;" vertex="1" parent="eAvux8Gj0jVYQ6yh-fwD-10">
          <mxGeometry y="52" width="140" height="26" as="geometry" />
        </mxCell>
        <mxCell id="eAvux8Gj0jVYQ6yh-fwD-13" value="" style="endArrow=diamondThin;endFill=0;endSize=24;html=1;rounded=0;" edge="1" parent="1" source="eAvux8Gj0jVYQ6yh-fwD-10" target="eAvux8Gj0jVYQ6yh-fwD-8">
          <mxGeometry width="160" relative="1" as="geometry">
            <mxPoint x="390" y="1771.5" as="sourcePoint" />
            <mxPoint x="440" y="1771.5" as="targetPoint" />
            <Array as="points">
              <mxPoint x="290" y="1886" />
            </Array>
          </mxGeometry>
        </mxCell>
        <mxCell id="eAvux8Gj0jVYQ6yh-fwD-14" value="" style="endArrow=diamondThin;endFill=0;endSize=24;html=1;rounded=0;" edge="1" parent="1" source="eAvux8Gj0jVYQ6yh-fwD-10" target="eAvux8Gj0jVYQ6yh-fwD-6">
          <mxGeometry width="160" relative="1" as="geometry">
            <mxPoint x="370" y="1782" as="sourcePoint" />
            <mxPoint x="440" y="1782" as="targetPoint" />
            <Array as="points">
              <mxPoint x="290" y="1956" />
            </Array>
          </mxGeometry>
        </mxCell>
        <mxCell id="eAvux8Gj0jVYQ6yh-fwD-15" value="Cabinet" style="swimlane;fontStyle=0;childLayout=stackLayout;horizontal=1;startSize=26;fillColor=none;horizontalStack=0;resizeParent=1;resizeParentMax=0;resizeLast=0;collapsible=1;marginBottom=0;whiteSpace=wrap;html=1;" vertex="1" parent="1">
          <mxGeometry x="450" y="1730" width="140" height="78" as="geometry" />
        </mxCell>
        <mxCell id="eAvux8Gj0jVYQ6yh-fwD-16" value="location: Text" style="text;strokeColor=none;fillColor=none;align=left;verticalAlign=top;spacingLeft=4;spacingRight=4;overflow=hidden;rotatable=0;points=[[0,0.5],[1,0.5]];portConstraint=eastwest;whiteSpace=wrap;html=1;" vertex="1" parent="eAvux8Gj0jVYQ6yh-fwD-15">
          <mxGeometry y="26" width="140" height="26" as="geometry" />
        </mxCell>
        <mxCell id="eAvux8Gj0jVYQ6yh-fwD-17" value="tag: Text" style="text;strokeColor=none;fillColor=none;align=left;verticalAlign=top;spacingLeft=4;spacingRight=4;overflow=hidden;rotatable=0;points=[[0,0.5],[1,0.5]];portConstraint=eastwest;whiteSpace=wrap;html=1;" vertex="1" parent="eAvux8Gj0jVYQ6yh-fwD-15">
          <mxGeometry y="52" width="140" height="26" as="geometry" />
        </mxCell>
        <mxCell id="eAvux8Gj0jVYQ6yh-fwD-18" value="*..1" style="endArrow=diamondThin;endFill=0;endSize=24;html=1;rounded=0;" edge="1" parent="1" source="eAvux8Gj0jVYQ6yh-fwD-10" target="eAvux8Gj0jVYQ6yh-fwD-15">
          <mxGeometry width="160" relative="1" as="geometry">
            <mxPoint x="370" y="1412" as="sourcePoint" />
            <mxPoint x="450" y="1412" as="targetPoint" />
          </mxGeometry>
        </mxCell>
        <mxCell id="eAvux8Gj0jVYQ6yh-fwD-19" value="Relations with linked config relation" style="text;html=1;strokeColor=none;fillColor=none;align=center;verticalAlign=middle;whiteSpace=wrap;rounded=0;" vertex="1" parent="1">
          <mxGeometry x="450" y="2010" width="150" height="30" as="geometry" />
        </mxCell>
        <mxCell id="eAvux8Gj0jVYQ6yh-fwD-20" value="" style="endArrow=diamondThin;endFill=0;endSize=24;html=1;rounded=0;" edge="1" parent="1" source="eAvux8Gj0jVYQ6yh-fwD-2" target="eAvux8Gj0jVYQ6yh-fwD-10">
          <mxGeometry width="160" relative="1" as="geometry">
            <mxPoint x="170" y="1614.5" as="sourcePoint" />
            <mxPoint x="220" y="1614.5" as="targetPoint" />
          </mxGeometry>
        </mxCell>
        <mxCell id="eAvux8Gj0jVYQ6yh-fwD-21" value="Central data DB (with API)" style="shape=cylinder3;whiteSpace=wrap;html=1;boundedLbl=1;backgroundOutline=1;size=15;" vertex="1" parent="1">
          <mxGeometry x="70" y="1580" width="60" height="80" as="geometry" />
        </mxCell>
        <mxCell id="eAvux8Gj0jVYQ6yh-fwD-22" value="" style="endArrow=classic;startArrow=classic;html=1;rounded=0;" edge="1" parent="1" source="eAvux8Gj0jVYQ6yh-fwD-2" target="eAvux8Gj0jVYQ6yh-fwD-21">
          <mxGeometry width="50" height="50" relative="1" as="geometry">
            <mxPoint x="99" y="1720" as="sourcePoint" />
            <mxPoint x="99" y="1660" as="targetPoint" />
          </mxGeometry>
        </mxCell>
        <mxCell id="eAvux8Gj0jVYQ6yh-fwD-23" value="EIS Connector&lt;br&gt;(with external entity)" style="edgeLabel;html=1;align=center;verticalAlign=middle;resizable=0;points=[];" vertex="1" connectable="0" parent="eAvux8Gj0jVYQ6yh-fwD-22">
          <mxGeometry x="0.0667" y="-2" relative="1" as="geometry">
            <mxPoint as="offset" />
          </mxGeometry>
        </mxCell>
        <mxCell id="eAvux8Gj0jVYQ6yh-fwD-24" value="" style="rounded=0;whiteSpace=wrap;html=1;fillColor=none;" vertex="1" parent="1">
          <mxGeometry y="10" width="620" height="1520" as="geometry" />
        </mxCell>
      </root>
    </mxGraphModel>
  </diagram>
</mxfile>
